<?xml version="1.0" standalone="no"?>
<!DOCTYPE svg PUBLIC "-//W3C//DTD SVG 20010904//EN"
 "http://www.w3.org/TR/2001/REC-SVG-20010904/DTD/svg10.dtd">
<svg version="1.0" xmlns="http://www.w3.org/2000/svg"
 width="1514.000000pt" height="1736.000000pt" viewBox="0 0 1514.000000 1736.000000"
 preserveAspectRatio="xMidYMid meet">

<g transform="translate(0.000000,1736.000000) scale(0.100000,-0.100000)"
fill="#000000" stroke="none">
<path d="M0 8680 l0 -8680 7570 0 7570 0 0 8680 0 8680 -7570 0 -7570 0 0
-8680z m6410 1335 c101 -223 187 -401 191 -397 4 4 89 186 190 405 l183 397
1273 0 1273 0 0 -1740 0 -1740 -645 0 -645 0 -2 1674 -3 1674 -810 -1674
c-445 -921 -814 -1672 -820 -1671 -9 3 -1683 3451 -1684 3470 -1 4 295 7 657
7 l657 0 185 -405z m3198 333 c8 -8 15 -8 27 2 13 11 15 8 15 -19 0 -31 -13
-42 -24 -18 -5 10 -7 10 -12 0 -9 -20 -24 -15 -24 7 0 11 -4 20 -10 20 -5 0
-10 -9 -10 -20 0 -11 -4 -20 -10 -20 -5 0 -10 6 -10 14 0 8 -3 21 -6 30 -5 12
1 16 23 16 16 0 34 -5 41 -12z"/>
<path d="M5139 10108 c64 -134 418 -865 786 -1626 367 -760 672 -1379 677
-1374 8 8 1568 3227 1568 3237 0 3 -259 4 -576 3 l-576 -3 -207 -449 c-113
-246 -210 -448 -215 -448 -5 1 -102 203 -215 451 l-206 451 -577 0 -577 0 118
-242z m1100 -9 c51 -110 91 -203 88 -205 -2 -3 -17 12 -32 33 -66 88 -148 174
-155 162 -5 -8 -17 2 -35 29 -37 56 -92 96 -190 140 l-30 13 26 -28 c29 -30
49 -65 49 -83 0 -6 -15 6 -32 26 -38 43 -119 84 -163 83 -26 0 -27 -2 -10 -9
11 -4 32 -21 48 -37 l27 -29 -85 28 c-69 23 -100 28 -158 26 l-72 -3 40 -13
c90 -30 125 -44 125 -52 0 -4 -24 -2 -52 6 -95 26 -256 17 -292 -16 -4 -5 18
-11 50 -15 86 -9 95 -16 44 -30 -65 -18 -119 -42 -156 -70 -18 -14 -36 -25
-41 -25 -6 0 -108 203 -131 262 -2 4 232 8 521 8 l524 0 92 -201z m1759 -6
c-55 -115 -136 -282 -179 -372 -67 -139 -81 -162 -96 -155 -70 31 -188 64
-248 69 -82 8 -159 -5 -251 -42 -34 -13 -72 -25 -85 -27 -13 -2 -37 -9 -54
-16 -40 -17 -154 -26 -140 -11 6 5 37 13 70 16 83 9 90 12 75 30 -11 13 -6 15
31 15 57 1 37 13 -63 40 l-73 20 70 -1 c39 -1 83 -1 99 0 27 1 28 2 12 14 -15
11 -12 12 23 9 23 -2 41 0 41 4 0 5 -31 22 -67 39 -80 35 -63 44 37 20 38 -9
75 -15 82 -13 7 3 -23 23 -67 46 -85 44 -84 51 5 27 30 -8 75 -15 100 -15 l45
0 -67 32 c-38 17 -68 35 -68 39 0 4 38 -5 85 -21 57 -19 93 -26 107 -21 20 7
-25 30 -182 95 -37 15 94 -6 144 -24 31 -10 56 -17 56 -15 0 3 -25 19 -55 36
-30 17 -55 32 -55 34 0 7 77 -18 113 -37 l38 -19 -17 26 c-19 29 -5 34 36 10
14 -8 31 -14 39 -15 19 0 -2 25 -51 61 -36 25 -37 27 -15 33 12 3 54 6 92 7
l70 1 -40 19 c-22 10 -53 19 -69 19 l-29 0 24 26 24 26 -50 -7 c-27 -4 -72
-16 -100 -26 -27 -11 -52 -19 -54 -19 -7 0 83 66 114 84 l30 17 -43 -6 c-24
-3 -62 -15 -84 -26 -55 -28 -118 -50 -118 -41 0 5 23 25 50 46 28 21 50 40 50
41 0 6 -76 -17 -112 -35 -41 -20 -46 -16 -23 14 26 35 16 41 -16 10 -45 -42
-98 -118 -141 -198 -28 -53 -38 -67 -43 -54 -6 15 7 66 41 168 3 8 -5 4 -16
-10 -24 -27 -75 -123 -96 -180 l-13 -35 0 40 c-1 22 3 56 9 75 l9 35 -24 -28
c-14 -15 -25 -24 -25 -19 0 5 23 58 51 118 28 60 64 137 79 172 l29 62 525 0
525 0 -101 -207z m-2594 -74 c-28 -31 -131 -81 -140 -68 -10 17 15 36 81 63
74 31 83 32 59 5z m103 -27 c-15 -16 -54 -51 -87 -78 -32 -27 -57 -50 -56 -52
6 -6 114 46 170 82 68 43 73 32 10 -23 -63 -55 -32 -53 48 4 79 56 145 91 155
81 4 -4 -13 -24 -37 -44 -25 -20 -67 -58 -95 -83 l-50 -46 -123 5 -123 4 -15
30 c-9 17 -12 34 -7 38 4 4 34 15 66 25 32 10 81 33 110 51 64 41 68 42 34 6z
m273 -76 c0 -2 -23 -19 -51 -37 -60 -38 -51 -50 17 -20 59 26 60 26 40 -4 -22
-33 -20 -36 10 -25 34 13 39 13 24 -5 -17 -20 -14 -20 90 20 147 56 151 41 10
-39 -69 -39 -71 -39 57 -15 84 15 97 8 40 -25 -57 -34 -62 -51 -9 -42 20 4 57
9 82 12 l45 5 -35 -20 -35 -20 90 -1 90 0 -30 -26 c-16 -14 -22 -23 -13 -20 9
2 34 8 55 12 35 6 37 6 24 -9 -7 -10 -22 -17 -33 -17 -10 0 -17 -4 -14 -9 9
-13 64 -19 110 -10 22 4 43 6 45 3 2 -2 -20 -15 -50 -28 -65 -31 -49 -42 44
-32 78 9 67 -9 -17 -28 l-56 -13 -111 63 c-61 34 -158 83 -217 107 -111 46
-350 127 -376 127 -35 0 -23 21 26 46 79 40 148 63 148 50z m1019 -205 c-6
-29 -9 -70 -7 -92 4 -48 -3 -50 -25 -5 -15 33 -15 37 10 95 15 34 28 59 30 57
2 -1 -2 -27 -8 -55z m-1329 -71 c-23 -18 -50 -26 -50 -15 0 6 53 34 65 34 6 0
-1 -8 -15 -19z m1269 -92 l-1 -53 -13 31 c-14 31 -10 74 6 74 5 0 9 -24 8 -52z
m-1201 -35 c-27 -26 -41 -34 -48 -27 -8 8 1 19 27 37 55 37 64 33 21 -10z
m307 -150 c-133 -175 -124 -161 -100 -144 11 8 60 53 109 100 99 96 97 79 -6
-53 -59 -75 -65 -85 -38 -70 17 11 63 48 103 84 82 75 79 65 -10 -37 -77 -89
-84 -118 -17 -72 25 17 72 57 105 89 32 32 59 56 59 53 0 -2 -18 -35 -40 -73
-22 -37 -44 -79 -49 -92 -8 -21 -22 -27 -118 -47 -168 -35 -148 -44 -212 92
l-55 118 79 79 c43 44 81 78 83 75 2 -2 -9 -28 -25 -57 -37 -65 -78 -167 -70
-174 3 -3 69 56 148 130 78 75 144 134 147 131 2 -2 -40 -62 -93 -132z m1085
127 c0 -5 -19 -9 -42 -9 l-43 2 35 7 c19 4 38 8 43 9 4 0 7 -3 7 -9z m750 -61
c0 -19 -18 -17 -37 4 -47 55 -49 61 -5 32 23 -15 42 -31 42 -36z m-2140 6 c-7
-9 -15 -13 -18 -10 -3 2 1 11 8 20 7 9 15 13 18 10 3 -2 -1 -11 -8 -20z m1951
-88 c96 -102 97 -103 82 -131 -8 -15 -19 -26 -26 -23 -6 2 -29 39 -51 83 -23
44 -58 101 -80 127 -68 83 -24 50 75 -56z m-1904 36 c-20 -38 -27 -44 -32 -31
-5 12 2 29 21 51 16 19 30 33 32 31 2 -1 -8 -24 -21 -51z m1795 -41 c101 -97
111 -119 43 -93 -34 13 -52 29 -74 63 -16 25 -46 64 -66 86 -31 35 -33 40 -13
34 12 -3 62 -44 110 -90z m228 43 c23 -23 31 -38 24 -45 -7 -7 -21 5 -42 35
-38 54 -29 59 18 10z m-464 12 c29 -16 126 -108 121 -113 -13 -13 -58 15 -106
67 -53 58 -57 70 -15 46z m-96 -93 l55 -29 -33 -3 c-28 -3 -42 4 -82 40 -53
47 -66 71 -22 40 15 -11 52 -32 82 -48z m98 16 c48 -35 51 -40 20 -40 -14 0
-34 14 -51 35 -34 43 -23 45 31 5z m162 -20 c18 -34 -13 -24 -34 11 -18 31
-18 31 3 20 11 -6 25 -20 31 -31z m-430 -18 c-12 -4 -50 26 -50 40 0 5 14 -2
31 -14 16 -12 25 -24 19 -26z m728 12 c-4 -3 -12 5 -18 18 -12 22 -12 22 6 6
10 -10 15 -20 12 -24z m-1353 -56 c-42 -78 -46 -83 -81 -86 l-36 -3 73 84 c41
47 77 86 82 86 4 1 -13 -36 -38 -81z m-91 30 c-27 -78 -62 -128 -89 -128 -24
0 -22 4 33 85 31 46 60 84 64 85 4 0 0 -19 -8 -42z m189 -44 c-14 -32 -31 -62
-37 -66 -14 -10 -56 -10 -56 0 0 10 111 134 116 129 3 -2 -8 -31 -23 -63z
m-315 -49 c-17 -34 -28 -45 -45 -45 -23 0 -23 2 14 45 20 25 41 45 45 45 4 0
-2 -20 -14 -45z m642 -36 c0 -11 -4 -17 -10 -14 -5 3 -10 15 -10 26 0 11 5 17
10 14 6 -3 10 -15 10 -26z m90 -91 c12 -21 23 -38 25 -38 1 0 -1 19 -6 43 -10
54 -11 67 -1 67 4 0 15 -19 25 -43 18 -45 71 -116 80 -107 3 3 0 35 -7 73 -7
37 -10 67 -6 67 8 0 84 -177 95 -220 3 -14 15 -36 26 -50 l20 -25 -6 50 c-3
28 -8 64 -11 80 -5 28 -4 29 10 12 8 -11 27 -49 42 -85 15 -37 34 -76 42 -87
12 -18 13 -11 8 57 -4 43 -15 110 -25 150 -11 40 -18 74 -17 76 13 13 166
-377 166 -422 0 -9 5 -16 10 -16 14 0 12 102 -5 190 -7 41 -16 91 -19 110 -5
23 13 -4 54 -85 33 -65 59 -125 58 -132 -8 -34 -724 -1502 -732 -1500 -5 2
-99 187 -208 413 l-199 409 5 58 c6 62 69 264 148 472 55 145 129 318 134 312
2 -1 -4 -29 -12 -61 -8 -32 -14 -62 -12 -66 2 -5 29 23 61 61 33 39 61 68 64
66 2 -3 -18 -36 -45 -73 -27 -38 -62 -91 -77 -119 l-27 -50 33 35 c21 22 30
28 25 15 -49 -127 -59 -199 -19 -134 12 19 32 44 43 54 l20 18 -15 -44 c-18
-51 -55 -192 -55 -210 0 -7 22 24 49 69 52 87 111 171 111 158 0 -4 -29 -65
-65 -134 -36 -70 -68 -143 -72 -162 l-6 -35 27 24 c14 14 26 22 26 19 0 -2
-11 -38 -25 -78 -14 -40 -23 -75 -21 -77 2 -2 38 44 80 103 42 59 76 104 76
99 0 -4 -37 -71 -81 -149 -95 -165 -98 -170 -67 -133 36 42 41 32 13 -24 -39
-77 -27 -89 25 -25 25 30 49 55 53 56 5 0 6 -4 3 -8 -13 -22 -73 -201 -66
-197 5 3 36 46 70 96 33 50 60 86 60 80 0 -12 -45 -127 -85 -216 -25 -55 -25
-58 -6 -41 l21 19 -16 -49 c-9 -27 -18 -60 -21 -74 -5 -27 -7 -30 58 73 l20
32 -7 -35 c-6 -33 -45 -172 -59 -215 -11 -31 58 67 86 122 30 61 28 57 34 51
3 -3 -2 -38 -11 -77 -9 -40 -14 -75 -11 -77 11 -11 117 225 131 291 l16 70 -3
-87 c-1 -47 1 -81 6 -75 13 21 55 161 62 209 5 31 11 45 20 42 14 -6 28 108
18 159 -8 43 11 25 31 -28 l15 -40 0 50 c1 49 -10 131 -25 189 -16 63 45 -23
67 -94 6 -20 7 -16 8 22 2 78 -26 199 -63 271 -19 37 -32 67 -30 67 2 0 22
-16 44 -36 22 -20 40 -30 40 -23 -1 8 -18 50 -40 94 -39 81 -42 98 -15 75 8
-7 15 -8 15 -3 0 14 -76 122 -113 161 -31 32 -24 42 15 21 l21 -11 -21 28
c-11 16 -50 63 -86 104 -50 57 -66 82 -66 106 0 48 12 49 31 2 9 -24 27 -60
39 -80z m-985 13 c-15 -13 -85 -23 -85 -12 0 5 19 12 43 14 23 2 44 4 47 5 2
1 0 -2 -5 -7z m569 -39 c16 -46 16 -51 -3 -95 -11 -26 -22 -47 -23 -47 -3 0
-3 169 0 183 4 16 11 5 26 -41z m1065 -117 c-1 -15 -4 -13 -14 10 -7 17 -15
41 -19 55 -5 19 -2 16 13 -10 11 -19 20 -44 20 -55z m-1195 -11 c35 -171 37
-158 -59 -389 -47 -115 -87 -211 -90 -213 -2 -2 -31 49 -63 115 l-60 118 24
45 c25 47 94 249 94 274 0 8 4 18 10 21 11 7 5 -75 -14 -192 -10 -57 -10 -73
0 -73 16 0 38 59 60 158 9 45 19 80 21 78 4 -3 -14 -170 -22 -216 l-5 -25 24
27 c30 33 43 91 52 236 4 62 8 111 10 109 2 -2 10 -34 18 -73z m71 4 c11 -52
11 -66 0 -88 -14 -24 -14 -24 -15 21 0 25 -3 68 -6 95 -9 67 5 49 21 -28z
m1085 -89 c0 -5 -4 -9 -10 -9 -5 0 -10 7 -10 16 0 8 5 12 10 9 6 -3 10 -10 10
-16z m-1475 -56 c-8 -27 -15 -51 -15 -55 0 -5 -4 -8 -10 -8 -14 0 -13 12 10
64 25 60 33 59 15 -1z m55 -87 c-10 -35 -20 -72 -22 -82 -4 -16 -7 -14 -17 10
-10 26 -8 36 16 83 15 29 31 53 34 53 4 0 -2 -29 -11 -64z"/>
<path d="M8300 8675 l0 -1675 570 0 570 0 0 1675 0 1675 -570 0 -570 0 0
-1675z m1100 1577 c0 -46 -1 -48 -47 -72 -26 -14 -52 -24 -59 -22 -6 1 -41
-27 -78 -63 -36 -35 -66 -62 -66 -59 0 3 7 19 15 37 l16 32 -25 -30 c-14 -16
-42 -59 -62 -95 -31 -57 -35 -61 -30 -30 l6 35 -25 -40 c-14 -22 -38 -76 -53
-120 -27 -80 -27 -80 -26 -358 1 -245 -1 -275 -13 -246 -9 23 -12 51 -7 91 4
37 3 58 -3 58 -6 0 -8 18 -5 45 4 39 2 45 -12 39 -14 -5 -15 -3 -6 21 5 14 10
61 10 103 -1 75 -1 76 -16 49 -22 -40 -26 -30 -14 34 6 31 6 73 2 99 l-8 45
-7 -35 c-4 -19 -19 -48 -33 -65 -29 -34 -29 -37 3 70 15 53 12 182 -7 213 -8
15 -9 15 -10 -3 0 -21 -48 -131 -54 -124 -2 2 2 38 10 79 7 41 13 92 14 114
l0 38 -21 -23 c-16 -19 -19 -20 -15 -6 3 11 9 31 12 45 l6 27 -21 -21 c-12
-11 -28 -38 -36 -60 -11 -32 -15 -36 -21 -20 -7 19 7 133 22 171 7 20 7 20
-14 1 -12 -10 -30 -41 -40 -69 -19 -49 -20 -50 -32 -28 -7 13 -13 48 -15 77
-2 65 -9 74 -23 37 -23 -62 -19 -124 13 -208 13 -33 -14 -3 -47 52 -24 41 -28
43 -22 18 4 -16 20 -64 36 -105 16 -41 31 -82 34 -90 3 -8 -18 10 -47 40 -52
55 -58 52 -32 -16 5 -13 3 -15 -8 -9 -19 12 39 -57 62 -73 35 -24 19 -33 -22
-12 -23 12 -43 19 -46 17 -7 -7 78 -87 112 -104 45 -24 13 -27 -40 -4 -25 11
-45 18 -45 15 0 -3 23 -30 52 -60 46 -48 48 -54 24 -44 -16 6 -30 9 -33 7 -8
-9 42 -59 85 -84 52 -31 42 -40 -32 -28 -44 6 -53 16 -114 114 l-34 56 7 -47
c3 -27 4 -48 2 -48 -3 0 -20 26 -37 57 -32 57 -101 146 -107 139 -2 -2 1 -16
7 -31 12 -33 7 -43 -15 -25 -13 11 -15 53 -15 281 l0 269 525 0 525 0 0 -48z
m-11 -93 c-8 -5 -21 -9 -29 -9 -10 1 -7 7 10 21 17 14 26 17 28 9 3 -7 -2 -16
-9 -21z m11 -73 c0 -48 -1 -48 -70 -61 l-35 -6 40 36 c37 34 38 36 11 25 -16
-6 -31 -9 -33 -6 -5 5 67 56 79 56 5 0 8 -20 8 -44z m-2 -103 c-3 -25 -8 -28
-73 -39 -160 -27 -152 -26 -130 -13 36 23 170 79 188 79 14 0 18 -6 15 -27z
m2 -94 l0 -42 -37 7 c-21 3 -56 6 -78 7 l-40 0 60 25 c33 14 48 23 33 21 -33
-5 -38 10 -5 16 62 12 67 10 67 -34z m0 -79 c0 -18 -7 -20 -75 -20 -41 0 -75
2 -75 5 0 7 93 34 123 34 21 1 27 -4 27 -19z m0 -57 c0 -18 -160 -189 -173
-185 -5 1 -35 -5 -68 -14 -33 -9 -62 -15 -64 -12 -3 2 36 26 85 52 50 26 90
49 90 51 0 4 -120 -24 -131 -31 -5 -3 -9 -1 -9 4 0 10 122 65 173 77 15 4 29
10 32 14 5 9 -88 -2 -168 -19 -32 -6 -61 -10 -63 -7 -12 11 271 100 289 90 4
-2 7 -11 7 -20z m-1035 -163 c3 -5 1 -10 -4 -10 -6 0 -11 5 -11 10 0 6 2 10 4
10 3 0 8 -4 11 -10z m865 -37 c0 -5 -13 -22 -28 -39 -19 -23 -39 -34 -69 -38
-24 -3 -43 -3 -43 2 0 9 118 82 132 82 5 0 8 -3 8 -7z m-793 -37 c10 -9 1 -13
-44 -21 -40 -6 -43 -5 -43 15 0 21 4 22 41 17 22 -3 43 -8 46 -11z m333 -77
c8 0 2 -5 -13 -11 -24 -9 -32 -7 -53 13 -35 33 -30 40 13 18 21 -10 44 -19 53
-20z m-356 12 c17 -7 16 -9 -14 -20 l-35 -12 50 -23 c28 -13 66 -33 85 -45
l35 -22 -60 6 c-133 13 -125 9 -125 70 0 51 2 55 23 54 12 0 31 -4 41 -8z
m735 -15 c-8 -16 -22 -26 -47 -30 -20 -3 -37 -4 -39 -2 -4 4 78 55 89 56 4 0
3 -11 -3 -24z m244 -43 c4 -2 7 -11 7 -19 0 -18 -25 -12 -80 18 l-35 19 50 -7
c28 -3 53 -8 58 -11z m-285 -25 c-9 -13 -26 -24 -39 -26 -23 -2 -23 -2 6 23
37 31 52 32 33 3z m254 -48 c51 0 51 -25 1 -39 -40 -11 -47 -8 -108 43 l-30
25 49 -15 c27 -7 66 -14 88 -14z m-532 -1 c0 -14 -17 -10 -23 5 -4 10 -1 13 9
9 7 -3 14 -9 14 -14z m238 -17 c-1 -4 -12 -31 -22 -60 -14 -36 -25 -52 -38
-52 -14 0 -18 8 -18 33 0 37 6 47 40 70 26 18 44 22 38 9z m171 -28 c35 -15
34 -26 -5 -38 -17 -5 -27 2 -49 30 l-28 36 24 -7 c13 -4 39 -14 58 -21z m-91
-36 l35 -21 -45 -23 c-39 -20 -88 -23 -88 -6 0 8 50 72 57 72 3 0 21 -10 41
-22z m-725 -93 c-55 -101 -73 -115 -73 -59 0 33 8 46 57 96 31 32 58 56 60 54
2 -2 -18 -43 -44 -91z m485 83 c14 -14 16 -38 4 -38 -5 0 -14 11 -20 25 -12
26 -4 33 16 13z m-546 -30 c-7 -7 -12 -8 -12 -2 0 14 12 26 19 19 2 -3 -1 -11
-7 -17z m109 -80 c-14 -34 -26 -47 -45 -50 -14 -3 -26 -2 -26 2 0 10 82 102
86 97 3 -2 -4 -24 -15 -49z m393 8 c-5 -21 -12 -26 -36 -26 -32 0 -31 7 5 48
25 27 41 16 31 -22z m-295 -10 c-7 -14 -19 -26 -26 -26 -15 0 -10 13 15 43 20
23 25 15 11 -17z m129 9 c-6 -14 -18 -25 -26 -25 -12 0 -10 6 8 25 13 14 25
25 27 25 1 0 -3 -11 -9 -25z m66 -9 c-3 -9 -13 -16 -22 -16 -13 0 -12 3 3 20
20 23 29 21 19 -4z m438 -5 l33 -29 -50 5 c-28 2 -56 6 -62 8 -21 7 -14 33 10
38 12 2 25 5 29 6 4 0 22 -12 40 -28z m179 -28 c12 -19 19 -36 16 -39 -2 -3
-19 19 -37 48 -18 29 -25 47 -16 39 8 -7 25 -29 37 -48z m-71 -3 c0 -5 -2 -10
-4 -10 -3 0 -8 5 -11 10 -3 6 -1 10 4 10 6 0 11 -4 11 -10z m-450 -67 c0 -5
-5 -15 -10 -23 -8 -12 -10 -11 -10 8 0 12 5 22 10 22 6 0 10 -3 10 -7z m-59
-120 c-9 -15 -10 -13 -11 12 0 17 4 41 8 55 6 23 7 21 10 -12 2 -21 -1 -46 -7
-55z m-49 -30 c3 -47 -2 -70 -25 -123 -94 -213 -180 -455 -192 -545 -8 -59 -2
-53 58 57 21 37 43 70 49 74 13 9 13 5 -42 -146 -47 -131 -80 -259 -79 -310
l0 -35 25 45 25 45 -5 -60 c-14 -165 -18 -303 -9 -308 5 -3 19 25 32 64 12 38
24 69 26 69 2 0 1 -71 -1 -157 l-4 -158 16 50 17 50 14 -83 c17 -109 28 -129
37 -69 11 71 26 67 26 -6 0 -75 10 -92 26 -45 l12 33 11 -30 c27 -72 28 -73
36 -32 l8 39 54 -54 54 -53 -26 68 c-14 37 -25 70 -25 73 0 4 11 3 25 0 l26
-7 -26 50 c-14 28 -25 53 -25 56 0 4 16 -3 36 -15 40 -25 56 -20 29 10 -27 30
-11 36 25 10 l31 -22 -43 83 c-57 111 -57 112 -3 54 l46 -50 -16 40 c-9 22
-34 73 -55 113 -22 39 -36 72 -33 72 11 0 114 -83 129 -104 8 -11 14 -16 14
-10 0 30 -45 134 -105 243 -37 67 -65 126 -63 132 2 5 41 -39 88 -100 47 -60
86 -108 88 -106 2 2 -15 49 -37 106 -23 56 -40 103 -38 105 1 2 22 -25 45 -59
23 -33 42 -56 42 -49 0 16 -71 202 -109 286 -17 38 -30 71 -27 73 5 5 77 -93
116 -159 19 -31 36 -56 38 -54 5 6 -43 200 -71 284 -13 39 -20 72 -17 72 6 0
21 -29 89 -180 l21 -45 -6 45 c-6 51 -58 262 -74 306 -29 76 25 -20 88 -156 9
-21 10 -13 5 43 -3 37 -3 67 0 67 10 0 54 -150 152 -510 53 -195 107 -390 121
-433 22 -71 24 -95 24 -268 l0 -189 -525 0 -525 0 0 771 0 771 27 70 c15 38
29 65 31 59 2 -6 -1 -50 -8 -97 -6 -48 -9 -89 -6 -92 10 -9 54 99 81 198 41
150 46 150 41 0 -3 -74 -8 -146 -11 -160 -3 -14 6 -2 20 25 13 28 29 75 35
105 20 104 30 100 25 -10 -5 -104 -5 -105 10 -60 18 54 45 180 45 212 0 13 4
30 10 38 9 15 4 -94 -10 -204 -6 -52 -5 -57 7 -40 16 23 70 187 79 244 9 57
22 49 26 -17z m402 -103 c3 -43 2 -67 -3 -55 -12 29 -23 151 -12 140 5 -6 11
-44 15 -85z m67 -110 c12 -80 25 -154 29 -165 5 -12 9 41 9 129 1 82 3 147 5
145 6 -5 34 -246 43 -364 6 -80 7 -86 14 -50 5 22 11 93 15 157 4 65 10 115
14 113 4 -3 10 -28 14 -57 4 -29 10 -69 14 -88 l7 -35 6 50 c3 28 7 -77 7
-233 1 -156 -2 -281 -7 -278 -28 17 -196 573 -205 677 -6 69 5 227 11 169 2
-14 13 -90 24 -170z m-281 3 c17 -53 29 -101 27 -107 -7 -18 -78 139 -85 186
-9 74 24 29 58 -79z m-284 -483 c-16 -39 -31 -69 -33 -66 -8 8 16 98 33 124
28 43 28 13 0 -58z"/>
</g>
</svg>
